<?xml version="1.0" encoding="UTF-8"?>
<svg id="b" data-name="Calque 2" xmlns="http://www.w3.org/2000/svg" viewBox="0 0 34.87 34.87">
  <defs>
    <style>
      .e, .f {
        fill: #fff;
      }

      .g {
        fill: #4b4796;
      }

      .f {
        stroke: #4b4796;
        stroke-miterlimit: 3.86;
        stroke-width: .85px;
      }
    </style>
  </defs>
  <g id="c" data-name="Calque 1">
    <g id="d" data-name="Picto Trolley Bus">
      <g>
        <polygon class="f" points="34.44 .43 .43 .43 .43 34.44 34.44 34.44 34.44 .43 34.44 .43"/>
        <circle class="g" cx="21.29" cy="28.14" r="3.8" transform="translate(-.1 .08) rotate(-.21)"/>
        <path class="g" d="M6.37,13.83c.17-.44.36-.67.72-.97.33-.27.56-.38.97-.48h11.25v-1.11h1.86v-1.21l9.01-7.44.49.59-8.73,7.21v.85h2.03v1.1h6.31s0,1.67,0,1.67h-4.83c-.31,0-.56.25-.56.56v5.67c0,.31.25.56.56.56h4.84v7.85s-3.38,0-3.38,0c-.28-.12-.43-.24-.6-.48-.15-.21-.24-.6-.24-.6l-.05-.21c-.38-2.25-2.34-3.96-4.7-3.96s-4.32,1.72-4.7,3.97l.02-.04s-.17.54-.36.85c-.16.26-.27.39-.48.6H5.65c-.32-.18-.5-.32-.72-.6-.25-.32-.38-.55-.46-.95l-.02-4.73,1.93-8.7Z"/>
        <path class="e" d="M23.4,28.14c0-1.17-.95-2.11-2.11-2.11s-2.11.95-2.11,2.11.95,2.11,2.11,2.11,2.11-.95,2.11-2.11Z"/>
        <path class="e" d="M9.59,23.1h-3.07c-.19-.08-.31-.18-.37-.37-.06-.18-.06-.31,0-.49l1.98-7.91c.19-.26.42-.38.74-.37.32,0,.55.11.74.37l-.02,8.77Z"/>
        <path class="e" d="M10.95,22.98c.19.27.43.38.76.37.28,0,.46-.14.62-.37v-8.65c-.12-.33-.39-.51-.74-.49-.3.01-.52.17-.64.46v8.69Z"/>
        <path class="e" d="M13.46,22.98c.19.27.43.38.76.37.28,0,.46-.14.62-.37v-8.65c-.11-.33-.39-.5-.74-.49-.31,0-.52.17-.64.46v8.69Z"/>
        <path class="e" d="M23.56,14.65c0-.31-.25-.56-.56-.56h-6.42c-.31,0-.56.25-.56.56v5.67c0,.31.25.56.56.56h6.42c.31,0,.56-.25.56-.56v-5.67h0Z"/>
        <path class="e" d="M30.28,20.84h-4.83c-.31,0-.56-.25-.56-.56v-5.67c0-.31.25-.56.56-.56h4.83v6.79Z"/>
      </g>
    </g>
  </g>
</svg>