<?xml version="1.0" encoding="UTF-8"?>
<svg id="b" data-name="Calque 2" xmlns="http://www.w3.org/2000/svg" viewBox="0 0 36.39 36.4">
  <defs>
    <style>
      .e, .f {
        fill: #fff;
      }

      .f {
        stroke: #8d4192;
        stroke-miterlimit: 3.86;
        stroke-width: .85px;
      }

      .g {
        fill: #8d4192;
      }
    </style>
  </defs>
  <g id="c" data-name="Calque 1">
    <g id="d" data-name="Picto Bus">
      <g>
        <polygon class="f" points=".43 .43 35.97 .43 35.97 35.97 .43 35.97 .43 .43 .43 .43"/>
        <circle class="g" cx="22.61" cy="27.76" r="4.42"/>
        <path class="g" d="M27.44,19.27c-.36,0-.65-.29-.65-.65v-6.59c0-.36.29-.65.65-.65h5.62v-1.95s-25.81.02-25.81.02c-.48.11-.74.25-1.12.56-.42.35-.64.61-.84,1.12l-2.24,10.1.02,5.49c.1.47.24.73.54,1.1.27.33.47.5.84.7h11.78c.25-.24.38-.4.56-.7.22-.35.42-.98.42-.98l-.02.05c.44-2.62,2.71-4.61,5.46-4.61s5.01,1.99,5.45,4.6l.06.24s.11.46.28.7c.2.29.38.42.7.56h3.93v-9.12h-5.63Z"/>
        <circle class="e" cx="22.61" cy="27.76" r="2.46"/>
        <path class="e" d="M16.51,12.08c0-.36.29-.65.65-.65h7.45c.36,0,.65.29.65.65v6.59c0,.36-.29.65-.65.65h-7.45c-.36,0-.65-.29-.65-.65v-6.59h0Z"/>
        <path class="e" d="M9.02,21.9h-3.57c-.22-.09-.35-.21-.43-.43-.07-.21-.07-.36,0-.57l2.3-9.18c.23-.3.49-.44.86-.43.38,0,.63.13.86.43l-.02,10.19Z"/>
        <path class="e" d="M10.6,21.76c.22.32.5.44.88.43.33,0,.54-.16.72-.43v-10.04c-.13-.38-.46-.59-.86-.57-.35.02-.6.2-.74.53v10.09Z"/>
        <path class="e" d="M13.52,21.76c.22.31.5.44.88.43.33-.01.54-.16.72-.43v-10.04c-.13-.38-.46-.59-.86-.57-.35.01-.6.2-.74.53v10.09Z"/>
        <path class="e" d="M33.04,19.27h-5.59c-.36,0-.65-.29-.65-.65v-6.59c0-.36.29-.65.65-.65h5.59v7.89Z"/>
      </g>
    </g>
  </g>
</svg>