<?xml version="1.0" encoding="UTF-8"?>
<svg id="b" data-name="Calque 2" xmlns="http://www.w3.org/2000/svg" viewBox="0 0 37.05 37.05">
  <defs>
    <style>
      .e {
        fill: #0f4d78;
      }

      .f {
        fill: #fff;
        stroke: #0f4d78;
        stroke-width: .85px;
      }
    </style>
  </defs>
  <g id="c" data-name="Calque 1">
    <g id="d" data-name="Picto Cabine">
      <g>
        <rect class="f" x=".43" y=".43" width="36.2" height="36.2"/>
        <path class="e" d="M28.39,14.93h-1.73l-2.15-1.79h-5.38v-4.78h4.27l10.55-3.01-.33-1.15-10.13,2.89-1.72-1.72h-6.48l-1.72,1.72L3.44,4.18l-.33,1.15,10.55,3.01h4.27v4.78h-5.38l-2.15,1.79h-1.73c-.33,0-.6.27-.6.6v16.75c0,.33.27.6.6.6h19.74c.33,0,.6-.27.6-.6V15.52c0-.33-.27-.6-.6-.6ZM21.16,6.55h.1l.6.6h-.7c.03-.09.05-.19.05-.3s-.02-.21-.05-.3ZM19.12,6.55h.35c-.03.09-.05.19-.05.3s.02.21.05.3h-.35v-.6ZM15.88,7.15h-.7l.6-.6h.1c-.03.09-.05.19-.05.3s.02.21.05.3ZM17.57,7.15c.03-.09.05-.19.05-.3s-.02-.21-.05-.3h.35v.6h-.35ZM12.24,23c0,.16-.13.3-.3.3h-2.39c-.16,0-.3-.13-.3-.3v-6.58c0-.16.13-.3.3-.3h2.39c.17,0,.3.13.3.3v6.58ZM24.21,23c0,.16-.14.3-.3.3h-10.77c-.16,0-.3-.13-.3-.3v-6.58c0-.16.14-.3.3-.3h10.77c.16,0,.3.13.3.3v6.58ZM27.79,23c0,.16-.13.3-.3.3h-2.39c-.16,0-.3-.13-.3-.3v-6.58c0-.16.14-.3.3-.3h2.39c.17,0,.3.13.3.3v6.58Z"/>
      </g>
    </g>
  </g>
</svg>