<?xml version="1.0" encoding="UTF-8"?>
<svg id="b" data-name="Calque 2" xmlns="http://www.w3.org/2000/svg" viewBox="0 0 37.05 37.05">
  <defs>
    <style>
      .e {
        stroke: #28b3a8;
        stroke-miterlimit: 3.86;
        stroke-width: .85px;
      }

      .e, .f {
        fill: #fff;
      }

      .g {
        fill: #1d1d1b;
      }

      .h {
        fill: #28b3a8;
      }
    </style>
  </defs>
  <g id="c" data-name="Calque 1">
    <g id="d" data-name="Picto Metro">
      <g>
        <rect class="e" x=".43" y=".43" width="36.2" height="36.2"/>
        <path class="g" d="M18.43,7.43s.06,0,.09,0c.03,0,.06,0,.09,0h-.19Z"/>
        <path class="h" d="M22.46,26.68h5.2v-9.27l-.88-6.72c-.25-1.21-1.04-1.7-2.22-2.19-1.17-.47-3.96-1.04-6.02-1.07-2.07.02-4.85.59-6.02,1.07-1.18.49-1.97.97-2.21,2.19l-.9,6.72v9.27h5.2l-7.05,7.13h1.01l2.97-3h14l2.97,3h1.01l-7.05-7.13Z"/>
        <polygon class="f" points="14.51 27.79 15.61 26.68 21.45 26.68 22.54 27.79 14.51 27.79"/>
        <polygon class="f" points="12.24 30.09 13.8 28.51 23.25 28.51 24.82 30.09 12.24 30.09"/>
        <path class="f" d="M24.81,23.77c.7,0,1.26-.55,1.26-1.24,0-.68-.56-1.24-1.26-1.24s-1.26.56-1.26,1.24c0,.69.56,1.25,1.26,1.24h0Z"/>
        <path class="f" d="M12.24,23.77c-.69,0-1.26-.55-1.26-1.24,0-.68.56-1.24,1.26-1.24s1.27.56,1.26,1.24c0,.69-.56,1.25-1.26,1.24h0Z"/>
        <path class="f" d="M18.43,10.22h-3.65c-.74,0-.74-1.09,0-1.09h7.5c.75,0,.75,1.09,0,1.09h-3.84Z"/>
        <path class="f" d="M18.43,11.32h-5.65c-.78,0-.98.39-1.09.98l-.69,4.88c-.06.47.08.94.74.93h13.56c.67,0,.8-.46.74-.93l-.69-4.88c-.1-.59-.3-.98-1.09-.98h-5.84Z"/>
        <path class="h" d="M3.24,3.24v26.47l3.95-1.79v-6.91c0-8.59,2.31-15.56,11.34-15.56,9.03,0,11.34,6.97,11.34,15.56v6.91l3.95,1.79V3.24H3.24Z"/>
      </g>
    </g>
  </g>
</svg>