<?xml version="1.0" encoding="UTF-8"?>
<svg id="b" data-name="Calque 2" xmlns="http://www.w3.org/2000/svg" viewBox="0 0 37.05 37.05">
  <defs>
    <style>
      .e {
        fill: #a5c83e;
      }

      .f, .g {
        fill: #fff;
      }

      .g {
        stroke: #a5c83e;
        stroke-miterlimit: 3.86;
        stroke-width: .85px;
      }
    </style>
  </defs>
  <g id="c" data-name="Calque 1">
    <g id="d" data-name="Picto Train">
      <g>
        <polygon class="g" points=".43 .43 36.63 .43 36.63 36.63 .43 36.63 .43 .43 .43 .43"/>
        <polyline class="e" points="3.23 3.78 33.94 3.78 33.94 3.16 3.23 3.16 3.23 3.78"/>
        <path class="e" d="M18.58,15.16c-.03-.2.27-.62.61-.62h14.75v-1.24h-14.75c-.34,0-.61-.27-.61-.61s.27-.62.61-.62h14.75v-1.24h-11.98l3.55-2.46-6.92-4-6.92,4,3.54,2.46h-7.87c-.93,0-1.7.72-1.83,1.61h0l-1.67,11.92h30.11v-6.14l-14.75-.04h0c-.34,0-.61-.27-.61-.61s.27-.57.61-.57h14.75v-1.23h-14.75c-.34,0-.61-.28-.61-.61h0"/>
        <path class="f" d="M33.94,18.23l-14.75-.04h0c-.34,0-.61-.27-.61-.61s.27-.57.61-.57h14.75v1.22Z"/>
        <path class="f" d="M33.94,13.3h-14.75c-.34,0-.61-.27-.61-.61s.27-.62.61-.62h14.75s0,1.23,0,1.23Z"/>
        <path class="f" d="M33.94,15.77h-14.75c-.34,0-.61-.28-.61-.61h0c-.03-.2.27-.62.61-.62h14.75s0,1.23,0,1.23Z"/>
        <path class="e" d="M3.11,29.48l.55-3.88h6.63v4.58H3.72c-.34,0-.61-.28-.61-.61,0-.03,0-.06,0-.09h0"/>
        <path class="e" d="M11.51,28.66c0-1.78,1.44-3.22,3.23-3.22s3.22,1.44,3.22,3.22-1.44,3.22-3.22,3.22-3.23-1.44-3.23-3.22h0"/>
        <path class="e" d="M19.2,28.66c0-1.78,1.44-3.22,3.23-3.22s3.22,1.44,3.22,3.22-1.44,3.22-3.22,3.22-3.23-1.44-3.23-3.22h0"/>
        <polyline class="e" points="3.22 33.89 33.94 33.89 33.94 32.66 3.22 32.66 3.22 33.89"/>
        <polyline class="e" points="33.94 30.18 26.88 30.18 26.88 25.58 33.94 25.58 33.94 30.18"/>
        <path class="f" d="M10.49,17.58c0,.34-.27.61-.62.61h-3.22c-.34,0-.62-.27-.62-.61,0-.03,0-.06,0-.09h0l.69-4.88h0c.07-.53.31-.54.62-.54h2.54c.34,0,.61.26.61.6h0v4.92h0"/>
        <polyline class="f" points="19.81 10.83 17.36 10.83 13.96 8.46 18.58 5.8 23.21 8.47 23.21 8.47 19.81 10.83"/>
      </g>
    </g>
  </g>
</svg>