<?xml version="1.0" encoding="UTF-8"?>
<svg id="b" data-name="Calque 2" xmlns="http://www.w3.org/2000/svg" viewBox="0 0 37.05 37.05">
  <defs>
    <style>
      .e, .f {
        fill: #fff;
      }

      .g {
        fill: #2384c6;
      }

      .f {
        stroke: #2384c6;
        stroke-miterlimit: 3.86;
        stroke-width: .85px;
      }
    </style>
  </defs>
  <g id="c" data-name="Calque 1">
    <g id="d" data-name="Picto Tram">
      <g>
        <polygon class="f" points=".43 .43 36.63 .43 36.63 36.63 .43 36.63 .43 .43 .43 .43"/>
        <polyline class="g" points="3.22 33.89 3.22 32.72 34.05 32.72 34.05 33.89 3.22 33.89"/>
        <path class="g" d="M11.59,29.99h6.42c-.49,1.27-1.85,2.14-3.31,2.14-1.36,0-2.63-.87-3.11-2.14h0"/>
        <path class="g" d="M19.27,29.99l6.32-.1h0c-.49,1.36-1.65,2.14-3.11,2.24-1.36,0-2.72-.87-3.21-2.14h0"/>
        <path class="g" d="M3.71,28.63c-.1,0-.2,0-.29-.1-.1-.1-.1-.2-.1-.39h0v-4.38h0v-.49h0l3.31-10.99h0c.2-.39.49-.77.88-.97.39-.2.77-.29,1.17-.29h5.25l6.81-6.71h0c.29-.19.58-.19.78.1.19.19.19.39,0,.58h0l-5.94,6.03h18.38v1.17h-6.32c-.1,0-.2,0-.29.1-.2.19-.29.39-.29.59h0l.1,7.69h0c-.1.19,0,.29.1.48.1.1.29.1.48.1h6.23v7.49H3.71"/>
        <path class="e" d="M33.96,12.19h-6.32c-.1,0-.2,0-.29.1-.2.19-.29.39-.29.59h0l.1,7.69h0c-.1.19,0,.29.1.48.1.1.29.1.48.1h6.23"/>
        <polyline class="g" points="3.32 3.83 33.96 3.83 33.96 3.25 3.32 3.25 3.32 3.83"/>
        <path class="e" d="M25.4,21.15h-7.78c-.19.1-.39,0-.49-.2-.1-.1-.2-.29-.2-.49h0v-7.78h0c.1-.1.1-.2.2-.29.1-.1.29-.2.49-.2h7.78c.1,0,.29.1.39.2.1.1.2.29.2.48h0v7.59h0c0,.1-.1.29-.2.49-.1.09-.19.2-.39.2h0"/>
        <path class="e" d="M15.87,22.9c0,.39-.29.78-.78.88-.58.1-1.07-.29-1.07-.88h0l-.1-9.92h0c.1-.58.58-.97,1.07-.88.49,0,.87.39.87.88h0v9.92h0"/>
        <path class="e" d="M12.76,23c0,.49-.49.88-.97.88-.48-.1-.87-.49-.87-.97h0v-9.92h0c0-.58.49-.97,1.07-.97.49.1.78.48.78.97h0v10.02h0"/>
        <path class="e" d="M9.74,23c0,.19,0,.39-.2.48-.1.1-.19.2-.39.2h-3.99c-.1,0-.29,0-.39-.1-.2-.19-.2-.39-.2-.49h0l3.31-10.41h0c.2-.49.68-.68,1.17-.58.39.1.68.49.68.97h0v9.93h0"/>
      </g>
    </g>
  </g>
</svg>